<?xml version="1.0" standalone="no"?>
<!DOCTYPE svg PUBLIC "-//W3C//DTD SVG 20010904//EN"
 "http://www.w3.org/TR/2001/REC-SVG-20010904/DTD/svg10.dtd">
<svg version="1.0" xmlns="http://www.w3.org/2000/svg"
 width="700.000000pt" height="700.000000pt" viewBox="0 0 700.000000 700.000000"
 preserveAspectRatio="xMidYMid meet">
<metadata>
Created by potrace 1.14, written by Peter Selinger 2001-2017
</metadata>
<g transform="translate(0.000000,700.000000) scale(0.100000,-0.100000)"
fill="#000000" stroke="none">
<path d="M2845 6334 c-588 -58 -1095 -299 -1503 -715 -90 -93 -224 -254 -269
-325 -202 -317 -305 -564 -368 -879 -65 -330 -65 -600 -1 -960 27 -145 108
-387 187 -552 366 -767 1120 -1288 1969 -1360 361 -31 739 23 1075 154 99 39
321 147 346 169 8 8 19 14 23 14 11 0 152 97 229 157 l69 53 695 -695 c394
-394 711 -704 732 -715 69 -35 156 -28 221 18 49 35 68 62 84 126 15 58 10
100 -20 158 -8 15 -326 339 -708 721 l-694 694 54 71 c164 217 282 434 369
683 42 120 91 314 101 397 3 31 8 59 9 62 18 30 26 437 12 560 -4 36 -8 72 -8
80 -1 8 -5 33 -9 55 -5 22 -11 60 -15 85 -3 25 -13 72 -21 105 -151 607 -497
1102 -1011 1448 -181 121 -430 239 -628 298 -98 29 -262 66 -326 74 -30 4 -56
8 -59 10 -10 6 -197 18 -305 19 -60 1 -164 -4 -230 -10z m425 -438 c447 -58
817 -227 1134 -518 81 -74 188 -196 246 -278 13 -19 27 -37 30 -40 33 -28 180
-307 223 -425 91 -251 125 -439 125 -695 0 -134 -10 -242 -33 -380 -12 -73
-66 -254 -105 -352 -199 -501 -603 -903 -1106 -1101 -84 -33 -239 -82 -295
-92 -13 -3 -35 -7 -49 -10 -14 -2 -43 -7 -65 -10 -22 -3 -65 -9 -95 -14 -121
-19 -462 -6 -580 23 -14 3 -36 8 -50 10 -53 9 -157 39 -262 76 -644 230 -1137
813 -1263 1495 -5 30 -9 59 -24 188 -9 77 -7 294 3 377 83 677 480 1247 1081
1548 214 108 455 177 682 197 43 4 79 8 81 10 5 5 271 -3 322 -9z"/>
<path d="M2939 5466 c-2 -2 -35 -7 -74 -11 -146 -14 -434 -108 -540 -176 -16
-10 -43 -26 -60 -34 -26 -12 -89 -57 -175 -124 -41 -31 -151 -142 -201 -201
-179 -212 -299 -480 -344 -770 -16 -102 -13 -343 6 -455 46 -265 165 -532 328
-730 109 -132 305 -293 461 -377 133 -72 350 -145 490 -163 30 -5 66 -10 80
-12 72 -10 336 -2 390 12 8 2 31 7 50 10 428 69 851 381 1064 785 121 229 175
449 177 715 3 336 -102 650 -314 935 -62 84 -244 259 -331 318 -154 106 -399
217 -521 236 -20 4 -41 8 -45 11 -28 17 -426 45 -441 31z"/>
</g>
</svg>
